<svg width="31.875000" height="31.875000" viewBox="0 0 31.875 31.875" fill="none" xmlns="http://www.w3.org/2000/svg" xmlns:xlink="http://www.w3.org/1999/xlink">
	<desc>
			Created with Pixso.
	</desc>
	<defs/>
	<rect id="ant-design:twitter-circle-filled" rx="0.000000" width="29.000000" height="29.000000" transform="translate(0.500000 0.500000)" fill="#FFFFFF" fill-opacity="0"/>
	<path id="Vector" d="M16.87 1.87C8.59 1.87 1.87 8.59 1.87 16.87C1.87 25.15 8.59 31.87 16.87 31.87C25.15 31.87 31.87 25.15 31.87 16.87C31.87 8.59 25.15 1.87 16.87 1.87ZM24.08 13.18C24.09 13.33 24.09 13.5 24.09 13.66C24.09 18.57 20.35 24.24 13.51 24.24C11.4 24.24 9.44 23.62 7.79 22.57C8.09 22.6 8.38 22.62 8.69 22.62C10.43 22.62 12.03 22.03 13.31 21.03C11.67 21 10.3 19.92 9.83 18.45C10.4 18.53 10.92 18.53 11.51 18.38C10.67 18.21 9.91 17.76 9.37 17.09C8.83 16.42 8.53 15.59 8.53 14.73L8.53 14.69C9.03 14.97 9.6 15.14 10.21 15.16C9.7 14.82 9.28 14.36 8.99 13.82C8.7 13.28 8.55 12.68 8.55 12.07C8.55 11.37 8.73 10.74 9.06 10.19C9.99 11.34 11.16 12.28 12.48 12.95C13.8 13.62 15.25 14 16.73 14.08C16.2 11.55 18.09 9.5 20.36 9.5C21.43 9.5 22.39 9.95 23.07 10.68C23.91 10.52 24.72 10.2 25.43 9.78C25.16 10.64 24.57 11.37 23.8 11.83C24.55 11.75 25.27 11.54 25.94 11.25C25.44 11.99 24.81 12.65 24.08 13.18Z" fill="#666666" fill-opacity="1.000000" fill-rule="nonzero"/>
</svg>
