<?xml version="1.0" encoding="UTF-8"?>
<!DOCTYPE svg PUBLIC "-//W3C//DTD SVG 1.1//EN" "http://www.w3.org/Graphics/SVG/1.1/DTD/svg11.dtd">
<svg xmlns="http://www.w3.org/2000/svg" version="1.1" width="105px" height="100px" style="shape-rendering:geometricPrecision; text-rendering:geometricPrecision; image-rendering:optimizeQuality; fill-rule:evenodd; clip-rule:evenodd" xmlns:xlink="http://www.w3.org/1999/xlink">
<g><path style="opacity:0.984" fill="#764abb" d="M 45.5,-0.5 C 49.1667,-0.5 52.8333,-0.5 56.5,-0.5C 70.4569,5.65997 78.1235,16.4933 79.5,32C 76.8128,32.5374 74.3128,32.0374 72,30.5C 70.6756,21.0057 66.1756,13.5057 58.5,8C 42.8427,4.62819 33.0094,10.7949 29,26.5C 25.9516,39.1609 27.6183,51.1609 34,62.5C 41.5614,63.9707 44.228,68.3041 42,75.5C 36.6004,80.8242 31.9338,80.1575 28,73.5C 27.3131,71.4325 27.4798,69.4325 28.5,67.5C 18.0723,48.8534 17.9056,30.1867 28,11.5C 32.8396,5.84707 38.673,1.84707 45.5,-0.5 Z"/></g>
<g><path style="opacity:0.984" fill="#764abb" d="M 104.5,67.5 C 104.5,72.1667 104.5,76.8333 104.5,81.5C 99.9342,90.7953 92.6009,96.7953 82.5,99.5C 78.1667,99.5 73.8333,99.5 69.5,99.5C 65.7902,98.3135 62.1235,96.8135 58.5,95C 60.7231,93.2669 63.0565,91.7669 65.5,90.5C 74.1197,93.6436 82.4531,93.1436 90.5,89C 99.3098,79.3804 99.8098,69.2137 92,58.5C 77.8171,42.8663 60.9838,38.3663 41.5,45C 37.018,41.2951 36.3513,36.9618 39.5,32C 44.1591,29.1823 48.6591,29.6823 53,33.5C 77.6142,34.0276 94.7809,45.361 104.5,67.5 Z"/></g>
<g><path style="opacity:0.983" fill="#764abb" d="M 30.5,99.5 C 28.5,99.5 26.5,99.5 24.5,99.5C 12.2673,98.2247 3.934,91.8914 -0.5,80.5C -0.5,75.8333 -0.5,71.1667 -0.5,66.5C 2.48344,57.9986 7.6501,50.9986 15,45.5C 15.7611,48.0529 16.5944,50.5529 17.5,53C 7.69659,59.7417 4.19659,68.9084 7,80.5C 11.5558,88.6155 18.5558,92.6155 28,92.5C 43.9307,90.0353 56.2641,82.0353 65,68.5C 65.1484,66.0946 64.6484,63.7613 63.5,61.5C 65.0315,54.9556 69.0315,52.7889 75.5,55C 81.1664,61.5469 79.9998,66.7136 72,70.5C 62.7554,86.7078 48.922,96.3745 30.5,99.5 Z"/></g>
</svg>
